<svg xmlns="http://www.w3.org/2000/svg" xmlns:xlink="http://www.w3.org/1999/xlink" width="500" zoomAndPan="magnify" viewBox="0 0 375 374.999991" height="500" preserveAspectRatio="xMidYMid meet" version="1.0"><defs><clipPath id="7258217efa"><path d="M 5.136719 5.136719 L 369.636719 5.136719 L 369.636719 369.636719 L 5.136719 369.636719 Z M 5.136719 5.136719 " clip-rule="nonzero"/></clipPath></defs><g clip-path="url(#7258217efa)"><path fill="#ffffff" d="M 187.5 5.136719 C 86.78125 5.136719 5.136719 86.78125 5.136719 187.5 C 5.136719 288.214844 86.78125 369.859375 187.5 369.859375 C 288.214844 369.859375 369.859375 288.214844 369.859375 187.5 C 369.859375 86.78125 288.214844 5.136719 187.5 5.136719 Z M 187.5 357.703125 C 93.648438 357.703125 17.296875 281.347656 17.296875 187.5 C 17.296875 93.648438 93.648438 17.292969 187.5 17.292969 C 281.347656 17.292969 357.703125 93.648438 357.703125 187.5 C 357.703125 281.347656 281.347656 357.703125 187.5 357.703125 Z M 187.5 357.703125 " fill-opacity="1" fill-rule="nonzero"/></g><path fill="#ffffff" d="M 199.777344 51.113281 C 197.453125 46.40625 192.75 43.480469 187.5 43.480469 C 182.25 43.480469 177.542969 46.40625 175.222656 51.113281 L 140.0625 122.351562 L 61.445312 133.777344 C 56.253906 134.53125 52.019531 138.097656 50.394531 143.09375 C 48.769531 148.085938 50.097656 153.464844 53.859375 157.128906 L 110.746094 212.578125 L 97.316406 290.878906 C 96.628906 294.871094 97.722656 298.921875 100.3125 301.992188 C 104.394531 306.828125 111.53125 308.285156 117.179688 305.3125 L 187.5 268.347656 L 257.816406 305.3125 C 259.820312 306.371094 261.96875 306.90625 264.191406 306.90625 C 268.230469 306.902344 272.054688 305.113281 274.6875 301.992188 C 277.277344 298.921875 278.367188 294.871094 277.683594 290.878906 L 264.253906 212.578125 L 321.144531 157.128906 C 324.902344 153.464844 326.226562 148.085938 324.605469 143.09375 C 322.980469 138.101562 318.746094 134.53125 313.554688 133.777344 L 234.9375 122.351562 Z M 199.777344 51.113281 " fill-opacity="1" fill-rule="nonzero"/></svg>