<svg xmlns="http://www.w3.org/2000/svg" xmlns:xlink="http://www.w3.org/1999/xlink" width="500" zoomAndPan="magnify" viewBox="0 0 375 374.999991" height="500" preserveAspectRatio="xMidYMid meet" version="1.0"><defs><clipPath id="ef9bda4864"><path d="M 5.136719 5.136719 L 369.636719 5.136719 L 369.636719 369.636719 L 5.136719 369.636719 Z M 5.136719 5.136719 " clip-rule="nonzero"/></clipPath></defs><g clip-path="url(#ef9bda4864)"><path fill="#ffffff" d="M 187.5 5.136719 C 86.78125 5.136719 5.136719 86.78125 5.136719 187.5 C 5.136719 288.214844 86.78125 369.859375 187.5 369.859375 C 288.214844 369.859375 369.859375 288.214844 369.859375 187.5 C 369.859375 86.78125 288.214844 5.136719 187.5 5.136719 Z M 187.5 357.703125 C 93.648438 357.703125 17.296875 281.347656 17.296875 187.5 C 17.296875 93.648438 93.648438 17.292969 187.5 17.292969 C 281.347656 17.292969 357.703125 93.648438 357.703125 187.5 C 357.703125 281.347656 281.347656 357.703125 187.5 357.703125 Z M 187.5 357.703125 " fill-opacity="1" fill-rule="nonzero"/></g><path fill="#ffffff" d="M 113.421875 76.054688 L 104.453125 76.054688 C 88.769531 76.054688 76.054688 88.769531 76.054688 104.453125 L 76.054688 113.421875 C 76.054688 129.105469 88.769531 141.820312 104.453125 141.820312 L 113.421875 141.820312 C 129.105469 141.820312 141.820312 129.105469 141.820312 113.421875 L 141.820312 104.453125 C 141.820312 88.769531 129.105469 76.054688 113.421875 76.054688 Z M 113.421875 76.054688 " fill-opacity="1" fill-rule="nonzero"/><path fill="#ffffff" d="M 191.984375 76.054688 L 183.011719 76.054688 C 167.328125 76.054688 154.617188 88.769531 154.617188 104.453125 L 154.617188 113.421875 C 154.617188 129.105469 167.328125 141.820312 183.011719 141.820312 L 191.984375 141.820312 C 207.667969 141.820312 220.378906 129.105469 220.378906 113.421875 L 220.378906 104.453125 C 220.382812 88.769531 207.667969 76.054688 191.984375 76.054688 Z M 191.984375 76.054688 " fill-opacity="1" fill-rule="nonzero"/><path fill="#ffffff" d="M 270.546875 76.054688 L 261.574219 76.054688 C 245.890625 76.054688 233.179688 88.769531 233.179688 104.453125 L 233.179688 113.421875 C 233.179688 129.105469 245.890625 141.820312 261.574219 141.820312 L 270.546875 141.820312 C 286.226562 141.820312 298.941406 129.105469 298.941406 113.421875 L 298.941406 104.453125 C 298.941406 88.769531 286.226562 76.054688 270.546875 76.054688 Z M 270.546875 76.054688 " fill-opacity="1" fill-rule="nonzero"/><path fill="#ffffff" d="M 113.421875 154.617188 L 104.453125 154.617188 C 88.769531 154.617188 76.054688 167.332031 76.054688 183.015625 L 76.054688 191.984375 C 76.054688 207.667969 88.769531 220.382812 104.453125 220.382812 L 113.421875 220.382812 C 129.105469 220.382812 141.820312 207.667969 141.820312 191.984375 L 141.820312 183.015625 C 141.820312 167.332031 129.105469 154.617188 113.421875 154.617188 Z M 113.421875 154.617188 " fill-opacity="1" fill-rule="nonzero"/><path fill="#ffffff" d="M 191.984375 154.617188 L 183.011719 154.617188 C 167.328125 154.617188 154.617188 167.332031 154.617188 183.015625 L 154.617188 191.984375 C 154.617188 207.667969 167.328125 220.382812 183.011719 220.382812 L 191.984375 220.382812 C 207.667969 220.382812 220.378906 207.667969 220.378906 191.984375 L 220.378906 183.015625 C 220.382812 167.332031 207.667969 154.617188 191.984375 154.617188 Z M 191.984375 154.617188 " fill-opacity="1" fill-rule="nonzero"/><path fill="#ffffff" d="M 270.546875 154.617188 L 261.574219 154.617188 C 245.890625 154.617188 233.179688 167.332031 233.179688 183.015625 L 233.179688 191.984375 C 233.179688 207.667969 245.890625 220.382812 261.574219 220.382812 L 270.546875 220.382812 C 286.226562 220.382812 298.941406 207.667969 298.941406 191.984375 L 298.941406 183.015625 C 298.941406 167.332031 286.226562 154.617188 270.546875 154.617188 Z M 270.546875 154.617188 " fill-opacity="1" fill-rule="nonzero"/><path fill="#ffffff" d="M 113.421875 233.179688 L 104.453125 233.179688 C 88.769531 233.179688 76.054688 245.890625 76.054688 261.574219 L 76.054688 270.546875 C 76.054688 286.226562 88.769531 298.941406 104.453125 298.941406 L 113.421875 298.941406 C 129.105469 298.941406 141.820312 286.226562 141.820312 270.546875 L 141.820312 261.574219 C 141.820312 245.890625 129.105469 233.179688 113.421875 233.179688 Z M 113.421875 233.179688 " fill-opacity="1" fill-rule="nonzero"/><path fill="#ffffff" d="M 191.984375 233.179688 L 183.011719 233.179688 C 167.328125 233.179688 154.617188 245.890625 154.617188 261.574219 L 154.617188 270.546875 C 154.617188 286.226562 167.328125 298.941406 183.011719 298.941406 L 191.984375 298.941406 C 207.667969 298.941406 220.378906 286.226562 220.378906 270.546875 L 220.378906 261.574219 C 220.382812 245.890625 207.667969 233.179688 191.984375 233.179688 Z M 191.984375 233.179688 " fill-opacity="1" fill-rule="nonzero"/><path fill="#ffffff" d="M 270.546875 233.179688 L 261.574219 233.179688 C 245.890625 233.179688 233.179688 245.890625 233.179688 261.574219 L 233.179688 270.546875 C 233.179688 286.226562 245.890625 298.941406 261.574219 298.941406 L 270.546875 298.941406 C 286.226562 298.941406 298.941406 286.226562 298.941406 270.546875 L 298.941406 261.574219 C 298.941406 245.890625 286.226562 233.179688 270.546875 233.179688 Z M 270.546875 233.179688 " fill-opacity="1" fill-rule="nonzero"/></svg>