<svg xmlns="http://www.w3.org/2000/svg" xmlns:xlink="http://www.w3.org/1999/xlink" width="500" zoomAndPan="magnify" viewBox="0 0 375 374.999991" height="500" preserveAspectRatio="xMidYMid meet" version="1.0"><defs><clipPath id="75ec58944d"><path d="M 6.445312 4.980469 L 370.195312 4.980469 L 370.195312 368.730469 L 6.445312 368.730469 Z M 6.445312 4.980469 " clip-rule="nonzero"/></clipPath></defs><g clip-path="url(#75ec58944d)"><path fill="#ffffff" d="M 188.230469 4.980469 C 87.976562 4.980469 6.445312 86.511719 6.445312 186.765625 C 6.445312 287.019531 87.976562 368.554688 188.230469 368.554688 C 288.484375 368.554688 370.019531 287.019531 370.019531 186.765625 C 370.019531 86.511719 288.484375 4.980469 188.230469 4.980469 Z M 188.230469 355.800781 C 94.894531 355.800781 19.195312 280.101562 19.195312 186.765625 C 19.195312 93.429688 94.894531 17.730469 188.230469 17.730469 C 281.566406 17.730469 357.265625 93.429688 357.265625 186.765625 C 357.265625 280.101562 281.566406 355.800781 188.230469 355.800781 Z M 188.230469 355.800781 " fill-opacity="1" fill-rule="nonzero"/></g><path fill="#ffffff" d="M 265.289062 252.335938 C 276.59375 238.769531 268.273438 230.855469 260.765625 225.160156 C 253.257812 219.460938 235.578125 212.179688 230.152344 218.691406 C 224.726562 225.203125 216.042969 233.34375 209.351562 231.582031 C 198.042969 228.597656 183.621094 213.355469 172.628906 202.367188 C 161.640625 191.378906 146.402344 176.953125 143.417969 165.648438 C 141.65625 158.957031 149.207031 150.769531 156.304688 144.847656 C 163.40625 138.921875 155.945312 122.371094 149.839844 114.234375 C 143.734375 106.09375 136.226562 98.40625 122.660156 109.710938 C 109.097656 121.015625 91.957031 151.089844 123.566406 196.941406 C 131.660156 208.699219 138.625 215.480469 149.070312 225.929688 C 159.515625 236.375 166.300781 243.339844 178.058594 251.433594 C 223.910156 283.042969 253.984375 265.902344 265.289062 252.335938 Z M 265.289062 252.335938 " fill-opacity="1" fill-rule="nonzero"/><path fill="#ffffff" d="M 227.300781 193.867188 C 226.910156 193.867188 226.519531 193.832031 226.132812 193.761719 C 225.742188 193.691406 225.367188 193.582031 225 193.441406 C 224.632812 193.300781 224.28125 193.125 223.945312 192.917969 C 223.609375 192.710938 223.296875 192.472656 223.007812 192.207031 C 222.714844 191.941406 222.453125 191.652344 222.214844 191.335938 C 221.980469 191.023438 221.773438 190.6875 221.601562 190.335938 C 221.425781 189.980469 221.285156 189.617188 221.179688 189.234375 C 221.074219 188.855469 221.003906 188.472656 220.972656 188.078125 C 220.882812 187.09375 220.75 186.113281 220.578125 185.136719 C 220.402344 184.164062 220.1875 183.199219 219.929688 182.242188 C 219.667969 181.289062 219.371094 180.347656 219.03125 179.417969 C 218.691406 178.488281 218.308594 177.574219 217.890625 176.679688 C 217.472656 175.78125 217.015625 174.90625 216.519531 174.046875 C 216.023438 173.191406 215.488281 172.359375 214.921875 171.546875 C 214.355469 170.738281 213.75 169.953125 213.113281 169.195312 C 212.476562 168.4375 211.808594 167.707031 211.109375 167.007812 C 210.410156 166.308594 209.683594 165.640625 208.921875 165.003906 C 208.164062 164.367188 207.382812 163.765625 206.570312 163.199219 C 205.761719 162.628906 204.925781 162.097656 204.070312 161.601562 C 203.214844 161.105469 202.335938 160.648438 201.441406 160.226562 C 200.546875 159.808594 199.632812 159.429688 198.703125 159.089844 C 197.773438 158.75 196.832031 158.449219 195.875 158.191406 C 194.917969 157.933594 193.953125 157.71875 192.980469 157.542969 C 192.007812 157.367188 191.027344 157.238281 190.039062 157.148438 C 189.625 157.109375 189.214844 157.03125 188.8125 156.914062 C 188.410156 156.796875 188.023438 156.640625 187.652344 156.449219 C 187.28125 156.253906 186.933594 156.023438 186.605469 155.761719 C 186.28125 155.5 185.984375 155.207031 185.714844 154.886719 C 185.445312 154.566406 185.210938 154.222656 185.007812 153.855469 C 184.808594 153.488281 184.644531 153.101562 184.519531 152.703125 C 184.394531 152.304688 184.308594 151.894531 184.265625 151.480469 C 184.21875 151.0625 184.214844 150.644531 184.253906 150.230469 C 184.289062 149.8125 184.367188 149.402344 184.484375 149 C 184.601562 148.597656 184.757812 148.210938 184.953125 147.839844 C 185.144531 147.46875 185.375 147.121094 185.636719 146.792969 C 185.898438 146.46875 186.191406 146.171875 186.511719 145.902344 C 186.835938 145.632812 187.179688 145.398438 187.546875 145.195312 C 187.914062 144.996094 188.296875 144.832031 188.695312 144.707031 C 189.097656 144.582031 189.503906 144.496094 189.921875 144.453125 C 190.335938 144.40625 190.753906 144.402344 191.171875 144.441406 C 192.523438 144.5625 193.871094 144.746094 195.207031 144.988281 C 196.542969 145.226562 197.871094 145.523438 199.179688 145.878906 C 200.492188 146.234375 201.785156 146.648438 203.0625 147.113281 C 204.339844 147.582031 205.589844 148.105469 206.820312 148.679688 C 208.050781 149.257812 209.257812 149.886719 210.433594 150.566406 C 211.609375 151.246094 212.753906 151.976562 213.867188 152.757812 C 214.976562 153.539062 216.054688 154.363281 217.097656 155.238281 C 218.136719 156.113281 219.136719 157.027344 220.097656 157.988281 C 221.0625 158.949219 221.980469 159.949219 222.851562 160.988281 C 223.726562 162.03125 224.554688 163.105469 225.335938 164.21875 C 226.117188 165.328125 226.851562 166.472656 227.53125 167.648438 C 228.214844 168.824219 228.84375 170.027344 229.421875 171.257812 C 230 172.488281 230.523438 173.738281 230.992188 175.015625 C 231.460938 176.289062 231.875 177.582031 232.230469 178.894531 C 232.585938 180.207031 232.886719 181.53125 233.128906 182.867188 C 233.371094 184.203125 233.554688 185.550781 233.679688 186.902344 C 233.714844 187.320312 233.710938 187.738281 233.667969 188.15625 C 233.625 188.574219 233.539062 188.984375 233.414062 189.386719 C 233.289062 189.785156 233.125 190.171875 232.925781 190.539062 C 232.722656 190.910156 232.488281 191.253906 232.222656 191.578125 C 231.953125 191.902344 231.65625 192.195312 231.328125 192.460938 C 231.003906 192.726562 230.652344 192.957031 230.28125 193.152344 C 229.910156 193.347656 229.523438 193.507812 229.121094 193.625 C 228.71875 193.746094 228.308594 193.828125 227.890625 193.867188 Z M 227.300781 193.867188 " fill-opacity="1" fill-rule="nonzero"/><path fill="#ffffff" d="M 256.96875 194.226562 C 256.558594 194.230469 256.15625 194.191406 255.757812 194.113281 C 255.355469 194.035156 254.964844 193.921875 254.589844 193.769531 C 254.210938 193.617188 253.851562 193.433594 253.507812 193.210938 C 253.164062 192.992188 252.847656 192.738281 252.550781 192.457031 C 252.257812 192.175781 251.992188 191.867188 251.757812 191.535156 C 251.523438 191.203125 251.320312 190.851562 251.152344 190.480469 C 250.984375 190.109375 250.851562 189.726562 250.757812 189.328125 C 250.664062 188.933594 250.609375 188.53125 250.589844 188.125 C 250.496094 186.167969 250.3125 184.21875 250.039062 182.277344 C 249.765625 180.335938 249.40625 178.414062 248.953125 176.507812 C 248.503906 174.601562 247.964844 172.71875 247.339844 170.859375 C 246.714844 169.003906 246.007812 167.179688 245.214844 165.386719 C 244.421875 163.59375 243.546875 161.84375 242.59375 160.132812 C 241.636719 158.421875 240.605469 156.757812 239.5 155.140625 C 238.390625 153.523438 237.210938 151.964844 235.957031 150.457031 C 234.707031 148.949219 233.386719 147.503906 232.003906 146.117188 C 230.617188 144.730469 229.171875 143.414062 227.664062 142.160156 C 226.15625 140.910156 224.59375 139.726562 222.976562 138.621094 C 221.363281 137.511719 219.699219 136.480469 217.988281 135.527344 C 216.277344 134.570312 214.523438 133.699219 212.730469 132.90625 C 210.941406 132.113281 209.117188 131.402344 207.257812 130.777344 C 205.402344 130.15625 203.519531 129.617188 201.613281 129.164062 C 199.707031 128.714844 197.78125 128.351562 195.84375 128.078125 C 193.902344 127.804688 191.953125 127.621094 189.996094 127.527344 C 189.578125 127.507812 189.164062 127.449219 188.757812 127.347656 C 188.351562 127.246094 187.957031 127.109375 187.578125 126.929688 C 187.199219 126.753906 186.839844 126.539062 186.503906 126.289062 C 186.164062 126.042969 185.855469 125.761719 185.574219 125.453125 C 185.289062 125.144531 185.042969 124.808594 184.824219 124.449219 C 184.609375 124.089844 184.429688 123.714844 184.285156 123.320312 C 184.144531 122.925781 184.042969 122.523438 183.976562 122.109375 C 183.914062 121.691406 183.894531 121.277344 183.914062 120.859375 C 183.933594 120.4375 183.992188 120.027344 184.09375 119.621094 C 184.195312 119.210938 184.332031 118.820312 184.511719 118.441406 C 184.6875 118.0625 184.902344 117.703125 185.152344 117.363281 C 185.398438 117.027344 185.679688 116.71875 185.988281 116.433594 C 186.296875 116.152344 186.632812 115.902344 186.992188 115.6875 C 187.351562 115.46875 187.726562 115.292969 188.121094 115.148438 C 188.515625 115.007812 188.917969 114.902344 189.332031 114.839844 C 189.75 114.777344 190.164062 114.757812 190.582031 114.777344 C 192.933594 114.890625 195.273438 115.113281 197.601562 115.441406 C 199.929688 115.769531 202.238281 116.207031 204.527344 116.75 C 206.816406 117.292969 209.078125 117.9375 211.308594 118.6875 C 213.535156 119.441406 215.726562 120.292969 217.878906 121.246094 C 220.027344 122.195312 222.132812 123.246094 224.183594 124.394531 C 226.238281 125.539062 228.238281 126.777344 230.175781 128.109375 C 232.117188 129.4375 233.992188 130.855469 235.800781 132.359375 C 237.609375 133.863281 239.347656 135.445312 241.011719 137.109375 C 242.671875 138.773438 244.257812 140.507812 245.761719 142.320312 C 247.261719 144.128906 248.679688 146.003906 250.011719 147.941406 C 251.339844 149.882812 252.578125 151.878906 253.726562 153.933594 C 254.871094 155.988281 255.921875 158.089844 256.875 160.242188 C 257.828125 162.394531 258.679688 164.582031 259.429688 166.8125 C 260.179688 169.042969 260.828125 171.300781 261.371094 173.589844 C 261.914062 175.878906 262.347656 178.1875 262.679688 180.515625 C 263.007812 182.847656 263.230469 185.1875 263.34375 187.535156 C 263.363281 187.953125 263.339844 188.371094 263.273438 188.785156 C 263.210938 189.199219 263.105469 189.605469 262.964844 189.996094 C 262.820312 190.390625 262.640625 190.765625 262.421875 191.125 C 262.203125 191.484375 261.953125 191.816406 261.667969 192.125 C 261.386719 192.433594 261.074219 192.710938 260.738281 192.960938 C 260.398438 193.207031 260.039062 193.417969 259.660156 193.59375 C 259.277344 193.773438 258.886719 193.910156 258.476562 194.007812 C 258.070312 194.109375 257.65625 194.164062 257.238281 194.183594 Z M 256.96875 194.226562 " fill-opacity="1" fill-rule="nonzero"/></svg>