<svg xmlns="http://www.w3.org/2000/svg" xmlns:xlink="http://www.w3.org/1999/xlink" width="500" zoomAndPan="magnify" viewBox="0 0 375 374.999991" height="500" preserveAspectRatio="xMidYMid meet" version="1.0"><defs><clipPath id="8c85281043"><path d="M 131.773438 18.660156 L 334.144531 18.660156 L 334.144531 375 L 131.773438 375 Z M 131.773438 18.660156 " clip-rule="nonzero"/></clipPath></defs><g clip-path="url(#8c85281043)"><path fill="#ffffff" d="M 131.773438 18.660156 L 334.144531 18.660156 L 334.144531 375.96875 L 131.773438 375.96875 Z M 131.773438 18.660156 " fill-opacity="1" fill-rule="nonzero"/></g><path fill="#0567fe" d="M 329.179688 0.734375 L 47.21875 0.734375 C 21.304688 0.734375 0 22.007812 0 47.800781 L 0 328.46875 C 0 354.269531 21.304688 375.765625 47.21875 375.765625 L 187.515625 375.765625 L 187.515625 246.34375 L 141.1875 246.34375 L 141.1875 188.984375 L 187.515625 188.984375 L 187.515625 141.359375 C 187.515625 102.601562 219.757812 72.0625 258.691406 72.0625 L 306.640625 72.0625 L 306.640625 130.15625 L 282.183594 130.15625 C 269.21875 130.15625 258.84375 128.449219 258.84375 141.359375 L 258.84375 188.984375 L 317.433594 188.984375 L 293.933594 246.34375 L 258.84375 246.34375 L 258.84375 375.765625 L 329.179688 375.765625 C 355.097656 375.765625 376.5 354.269531 376.5 328.46875 L 376.5 47.800781 C 376.5 22.007812 355.097656 0.734375 329.179688 0.734375 Z M 329.179688 0.734375 " fill-opacity="1" fill-rule="nonzero"/></svg>