<svg xmlns="http://www.w3.org/2000/svg" xmlns:xlink="http://www.w3.org/1999/xlink" width="500" zoomAndPan="magnify" viewBox="0 0 375 374.999991" height="500" preserveAspectRatio="xMidYMid meet" version="1.0"><defs><clipPath id="cdee09b789"><path d="M 5.859375 4.394531 L 370.359375 4.394531 L 370.359375 368.894531 L 5.859375 368.894531 Z M 5.859375 4.394531 " clip-rule="nonzero"/></clipPath></defs><path fill="#ffffff" d="M 192.070312 44.128906 C 191.898438 43.988281 191.71875 43.863281 191.535156 43.742188 C 191.378906 43.640625 191.222656 43.539062 191.0625 43.453125 C 190.878906 43.359375 190.6875 43.277344 190.496094 43.199219 C 190.320312 43.128906 190.144531 43.058594 189.960938 43.003906 C 189.769531 42.949219 189.578125 42.910156 189.382812 42.871094 C 189.195312 42.835938 189.011719 42.800781 188.820312 42.78125 C 188.617188 42.761719 188.417969 42.761719 188.214844 42.761719 C 188.03125 42.765625 187.847656 42.761719 187.667969 42.78125 C 187.457031 42.800781 187.253906 42.839844 187.046875 42.878906 C 186.871094 42.914062 186.699219 42.949219 186.527344 42.996094 C 186.324219 43.058594 186.128906 43.136719 185.933594 43.214844 C 185.761719 43.285156 185.589844 43.355469 185.421875 43.445312 C 185.242188 43.539062 185.074219 43.648438 184.902344 43.761719 C 184.730469 43.871094 184.5625 43.988281 184.40625 44.117188 C 184.34375 44.167969 184.273438 44.199219 184.214844 44.253906 L 52.503906 160.15625 C 52.4375 160.214844 52.390625 160.285156 52.328125 160.347656 C 52.21875 160.449219 52.125 160.5625 52.023438 160.675781 C 51.855469 160.859375 51.691406 161.046875 51.550781 161.25 C 51.46875 161.363281 51.402344 161.488281 51.332031 161.605469 C 51.199219 161.824219 51.074219 162.039062 50.972656 162.265625 C 50.914062 162.402344 50.871094 162.542969 50.820312 162.683594 C 50.738281 162.910156 50.660156 163.140625 50.605469 163.375 C 50.570312 163.527344 50.554688 163.6875 50.53125 163.84375 C 50.496094 164.082031 50.464844 164.316406 50.457031 164.558594 C 50.457031 164.617188 50.441406 164.671875 50.441406 164.734375 C 50.441406 164.847656 50.46875 164.957031 50.472656 165.074219 C 50.484375 165.292969 50.503906 165.511719 50.539062 165.730469 C 50.574219 165.929688 50.621094 166.121094 50.671875 166.3125 C 50.722656 166.492188 50.773438 166.667969 50.839844 166.847656 C 50.917969 167.058594 51.015625 167.265625 51.117188 167.464844 C 51.1875 167.605469 51.257812 167.746094 51.34375 167.882812 C 51.480469 168.113281 51.636719 168.324219 51.804688 168.53125 C 51.859375 168.597656 51.894531 168.671875 51.953125 168.738281 C 51.980469 168.769531 52.015625 168.789062 52.042969 168.820312 C 52.273438 169.070312 52.527344 169.296875 52.796875 169.507812 C 52.859375 169.558594 52.921875 169.617188 52.984375 169.664062 C 53.984375 170.378906 55.195312 170.8125 56.519531 170.8125 L 72.882812 170.8125 L 72.882812 284.410156 C 72.882812 286.648438 74.695312 288.460938 76.933594 288.460938 L 145.691406 288.460938 C 147.929688 288.460938 149.746094 286.644531 149.746094 284.410156 L 149.746094 242.890625 C 149.746094 221.6875 167.007812 204.4375 188.226562 204.4375 C 198.511719 204.4375 208.179688 208.4375 215.445312 215.699219 C 222.710938 222.96875 226.710938 232.625 226.710938 242.890625 L 226.710938 284.410156 C 226.710938 286.648438 228.527344 288.460938 230.761719 288.460938 L 299.519531 288.460938 C 301.757812 288.460938 303.570312 286.644531 303.570312 284.410156 L 303.570312 170.8125 L 319.933594 170.8125 C 320.8125 170.8125 321.640625 170.617188 322.394531 170.285156 C 322.421875 170.273438 322.441406 170.257812 322.46875 170.246094 C 322.816406 170.085938 323.148438 169.894531 323.457031 169.675781 C 323.542969 169.613281 323.625 169.535156 323.707031 169.46875 C 323.949219 169.273438 324.183594 169.070312 324.390625 168.84375 C 324.425781 168.804688 324.472656 168.777344 324.507812 168.738281 C 324.578125 168.65625 324.625 168.5625 324.695312 168.476562 C 324.835938 168.296875 324.972656 168.113281 325.09375 167.917969 C 325.199219 167.75 325.285156 167.578125 325.371094 167.402344 C 325.453125 167.234375 325.535156 167.066406 325.601562 166.890625 C 325.683594 166.675781 325.746094 166.460938 325.804688 166.242188 C 325.84375 166.085938 325.882812 165.9375 325.910156 165.777344 C 325.957031 165.515625 325.976562 165.25 325.988281 164.988281 C 325.992188 164.902344 326.015625 164.820312 326.015625 164.734375 C 326.015625 164.6875 326.003906 164.648438 326 164.601562 C 325.996094 164.3125 325.960938 164.027344 325.914062 163.742188 C 325.898438 163.632812 325.886719 163.523438 325.863281 163.414062 C 325.796875 163.128906 325.707031 162.851562 325.601562 162.578125 C 325.566406 162.484375 325.539062 162.390625 325.5 162.300781 C 325.382812 162.03125 325.234375 161.773438 325.078125 161.519531 C 325.027344 161.441406 324.980469 161.355469 324.929688 161.277344 C 324.769531 161.046875 324.582031 160.832031 324.386719 160.621094 C 324.308594 160.535156 324.234375 160.449219 324.152344 160.371094 C 324.082031 160.300781 324.03125 160.222656 323.957031 160.160156 L 192.246094 44.253906 C 192.191406 44.207031 192.128906 44.175781 192.070312 44.128906 Z M 72.882812 158.652344 L 72.613281 158.652344 L 72.882812 158.417969 Z M 303.574219 158.410156 L 303.851562 158.652344 L 303.574219 158.652344 Z M 303.574219 158.410156 " fill-opacity="1" fill-rule="nonzero"/><g clip-path="url(#cdee09b789)"><path fill="#ffffff" d="M 188.234375 4.394531 C 87.511719 4.394531 5.859375 86.042969 5.859375 186.765625 C 5.859375 287.488281 87.511719 369.140625 188.234375 369.140625 C 288.953125 369.140625 370.605469 287.488281 370.605469 186.765625 C 370.605469 86.042969 288.953125 4.394531 188.234375 4.394531 Z M 188.234375 356.980469 C 94.375 356.980469 18.019531 280.625 18.019531 186.765625 C 18.019531 92.910156 94.375 16.550781 188.234375 16.550781 C 282.089844 16.550781 358.449219 92.910156 358.449219 186.765625 C 358.449219 280.625 282.089844 356.980469 188.234375 356.980469 Z M 188.234375 356.980469 " fill-opacity="1" fill-rule="nonzero"/></g></svg>