<svg xmlns="http://www.w3.org/2000/svg" xmlns:xlink="http://www.w3.org/1999/xlink" width="500" zoomAndPan="magnify" viewBox="0 0 375 374.999991" height="500" preserveAspectRatio="xMidYMid meet" version="1.0"><defs><clipPath id="b92e634365"><path d="M 5.136719 5.136719 L 369.636719 5.136719 L 369.636719 369.636719 L 5.136719 369.636719 Z M 5.136719 5.136719 " clip-rule="nonzero"/></clipPath></defs><g clip-path="url(#b92e634365)"><path fill="#ffffff" d="M 187.46875 5.167969 C 237.824219 5.167969 283.414062 25.578125 316.421875 58.578125 C 349.429688 91.578125 369.835938 137.167969 369.835938 187.527344 C 369.835938 237.882812 349.429688 283.472656 316.421875 316.480469 C 283.414062 349.488281 237.832031 369.890625 187.46875 369.890625 C 137.113281 369.890625 91.523438 349.480469 58.515625 316.480469 C 25.507812 283.480469 5.105469 237.882812 5.105469 187.527344 C 5.105469 137.175781 25.515625 91.585938 58.515625 58.578125 C 91.515625 25.570312 137.113281 5.167969 187.46875 5.167969 Z M 309.253906 65.742188 C 278.085938 34.574219 235.035156 15.296875 187.46875 15.296875 C 139.910156 15.296875 96.851562 34.574219 65.679688 65.742188 C 34.511719 96.910156 15.234375 139.964844 15.234375 187.527344 C 15.234375 235.085938 34.511719 278.148438 65.679688 309.316406 C 96.851562 340.484375 139.902344 359.761719 187.46875 359.761719 C 235.027344 359.761719 278.085938 340.484375 309.253906 309.316406 C 340.425781 278.148438 359.699219 235.09375 359.699219 187.527344 C 359.699219 139.972656 340.425781 96.910156 309.253906 65.742188 Z M 309.253906 65.742188 " fill-opacity="1" fill-rule="nonzero"/></g><path fill="#ffffff" d="M 187.46875 73.554688 C 221.5625 73.554688 249.199219 98.371094 249.199219 128.984375 C 249.199219 151.488281 198.890625 256.363281 187.308594 283.832031 C 170.867188 244.835938 137.128906 178.941406 127.386719 141.710938 L 127.378906 141.695312 C 126.316406 137.617188 125.746094 133.359375 125.746094 128.984375 C 125.738281 98.371094 153.375 73.554688 187.46875 73.554688 Z M 187.46875 99.554688 C 171.238281 99.554688 158.078125 112.714844 158.078125 128.945312 C 158.078125 145.175781 171.238281 158.335938 187.46875 158.335938 C 203.699219 158.335938 216.859375 145.175781 216.859375 128.945312 C 216.859375 112.714844 203.699219 99.554688 187.46875 99.554688 Z M 187.46875 99.554688 " fill-opacity="1" fill-rule="evenodd"/><path fill="#ffffff" d="M 233.394531 278.480469 C 233.394531 268.839844 221.433594 260.304688 203.738281 256.949219 C 199.457031 266.394531 195.082031 275.867188 191.054688 285.410156 L 187.300781 294.308594 L 183.546875 285.410156 L 171.519531 256.886719 C 153.648438 260.199219 141.542969 268.777344 141.542969 278.480469 C 141.542969 291.203125 162.105469 301.503906 187.46875 301.503906 C 212.832031 301.503906 233.394531 291.195312 233.394531 278.480469 Z M 233.394531 278.480469 " fill-opacity="1" fill-rule="evenodd"/></svg>