<svg xmlns="http://www.w3.org/2000/svg" xmlns:xlink="http://www.w3.org/1999/xlink" width="500" zoomAndPan="magnify" viewBox="0 0 375 374.999991" height="500" preserveAspectRatio="xMidYMid meet" version="1.0"><defs><clipPath id="d1d82aa3b2"><path d="M 5.136719 5.136719 L 369.636719 5.136719 L 369.636719 369.636719 L 5.136719 369.636719 Z M 5.136719 5.136719 " clip-rule="nonzero"/></clipPath></defs><g clip-path="url(#d1d82aa3b2)"><path fill="#ffffff" d="M 187.5 5.136719 C 86.78125 5.136719 5.136719 86.78125 5.136719 187.5 C 5.136719 288.214844 86.78125 369.859375 187.5 369.859375 C 288.214844 369.859375 369.859375 288.214844 369.859375 187.5 C 369.859375 86.78125 288.214844 5.136719 187.5 5.136719 Z M 187.5 357.703125 C 93.648438 357.703125 17.296875 281.347656 17.296875 187.5 C 17.296875 93.648438 93.648438 17.292969 187.5 17.292969 C 281.347656 17.292969 357.703125 93.648438 357.703125 187.5 C 357.703125 281.347656 281.347656 357.703125 187.5 357.703125 Z M 187.5 357.703125 " fill-opacity="1" fill-rule="nonzero"/></g><path fill="#ffffff" d="M 277.183594 134.585938 L 291.960938 119.808594 C 297.4375 114.332031 297.4375 105.417969 291.960938 99.9375 L 275.058594 83.039062 C 269.578125 77.554688 260.660156 77.558594 255.1875 83.039062 L 240.414062 97.8125 C 232.042969 92.808594 223.015625 89.0625 213.476562 86.640625 L 213.476562 65.804688 C 213.476562 58.050781 207.167969 51.742188 199.414062 51.742188 L 175.585938 51.742188 C 167.828125 51.742188 161.523438 58.050781 161.523438 65.804688 L 161.523438 86.644531 C 151.980469 89.0625 142.953125 92.808594 134.585938 97.816406 L 119.808594 83.039062 C 114.332031 77.558594 105.414062 77.554688 99.9375 83.039062 L 83.039062 99.9375 C 77.558594 105.417969 77.558594 114.332031 83.039062 119.808594 L 97.8125 134.585938 C 92.808594 142.953125 89.0625 151.980469 86.640625 161.523438 L 65.804688 161.523438 C 58.050781 161.523438 51.742188 167.832031 51.742188 175.585938 L 51.742188 199.414062 C 51.742188 207.167969 58.050781 213.476562 65.804688 213.476562 L 86.644531 213.476562 C 89.0625 223.015625 92.808594 232.042969 97.816406 240.414062 L 83.039062 255.1875 C 77.558594 260.667969 77.558594 269.582031 83.039062 275.058594 L 99.9375 291.960938 C 102.675781 294.699219 106.277344 296.070312 109.875 296.070312 C 113.472656 296.070312 117.070312 294.699219 119.8125 291.960938 L 134.585938 277.183594 C 142.957031 282.191406 151.984375 285.933594 161.523438 288.355469 L 161.523438 309.195312 C 161.523438 316.949219 167.832031 323.257812 175.585938 323.257812 L 199.414062 323.257812 C 207.167969 323.257812 213.476562 316.949219 213.476562 309.195312 L 213.476562 288.355469 C 223.015625 285.9375 232.042969 282.191406 240.414062 277.183594 L 255.1875 291.960938 C 257.929688 294.699219 261.527344 296.070312 265.125 296.070312 C 268.722656 296.070312 272.324219 294.699219 275.0625 291.960938 L 291.960938 275.058594 C 297.441406 269.582031 297.441406 260.667969 291.960938 255.1875 L 277.183594 240.414062 C 282.191406 232.042969 285.9375 223.015625 288.355469 213.476562 L 309.195312 213.476562 C 316.949219 213.476562 323.257812 207.167969 323.257812 199.414062 L 323.257812 175.585938 C 323.257812 167.828125 316.949219 161.523438 309.195312 161.523438 L 288.355469 161.523438 C 285.933594 151.980469 282.191406 142.953125 277.183594 134.585938 Z M 187.5 240.992188 C 158 240.992188 134.003906 216.996094 134.003906 187.5 C 134.003906 158 158 134.003906 187.5 134.003906 C 216.996094 134.003906 240.992188 158 240.992188 187.5 C 240.992188 216.996094 216.996094 240.992188 187.5 240.992188 Z M 187.5 240.992188 " fill-opacity="1" fill-rule="nonzero"/></svg>