<svg xmlns="http://www.w3.org/2000/svg" xmlns:xlink="http://www.w3.org/1999/xlink" width="500" zoomAndPan="magnify" viewBox="0 0 375 374.999991" height="500" preserveAspectRatio="xMidYMid meet" version="1.0"><defs><clipPath id="100e1157c1"><path d="M 9.375 9.375 L 366.375 9.375 L 366.375 366.375 L 9.375 366.375 Z M 9.375 9.375 " clip-rule="nonzero"/></clipPath></defs><g clip-path="url(#100e1157c1)"><path fill="#fafefd" d="M 187.9375 9.375 C 89.332031 9.375 9.375 89.332031 9.375 187.9375 C 9.375 286.546875 89.332031 366.503906 187.9375 366.503906 C 286.546875 366.503906 366.503906 286.546875 366.503906 187.9375 C 366.503906 89.332031 286.546875 9.375 187.9375 9.375 Z M 187.9375 354.597656 C 96.039062 354.597656 21.277344 279.839844 21.277344 187.9375 C 21.277344 96.039062 96.039062 21.277344 187.9375 21.277344 C 279.839844 21.277344 354.597656 96.039062 354.597656 187.9375 C 354.597656 279.839844 279.839844 354.597656 187.9375 354.597656 Z M 187.9375 354.597656 " fill-opacity="1" fill-rule="nonzero"/></g><path fill="#fafefd" d="M 83.21875 132.183594 L 83.21875 154.441406 C 83.21875 162.875 90.054688 169.707031 98.488281 169.707031 L 180.242188 169.707031 L 180.242188 116.917969 L 98.488281 116.917969 C 90.054688 116.917969 83.21875 123.753906 83.21875 132.183594 Z M 83.21875 132.183594 " fill-opacity="1" fill-rule="nonzero"/><path fill="#fafefd" d="M 277.390625 116.917969 L 195.640625 116.917969 L 195.640625 169.707031 L 277.390625 169.707031 C 285.824219 169.707031 292.660156 162.875 292.660156 154.441406 L 292.660156 132.183594 C 292.660156 123.753906 285.824219 116.917969 277.390625 116.917969 Z M 277.390625 116.917969 " fill-opacity="1" fill-rule="nonzero"/><path fill="#fafefd" d="M 146.722656 223.453125 L 147.160156 212.136719 L 135.84375 212.574219 C 134.039062 212.867188 133.765625 210.828125 135.386719 209.203125 L 165.535156 179.058594 L 94.988281 179.058594 L 94.988281 277.496094 C 94.988281 288.097656 103.582031 296.691406 114.183594 296.691406 L 180.238281 296.691406 L 180.238281 193.761719 L 150.09375 223.90625 C 148.46875 225.53125 146.429688 225.257812 146.722656 223.453125 Z M 146.722656 223.453125 " fill-opacity="1" fill-rule="nonzero"/><path fill="#fafefd" d="M 240.488281 209.203125 C 242.113281 210.828125 241.839844 212.867188 240.035156 212.574219 L 228.714844 212.136719 L 229.152344 223.453125 C 229.449219 225.257812 227.410156 225.53125 225.785156 223.90625 L 195.640625 193.761719 L 195.640625 296.691406 L 261.695312 296.691406 C 272.296875 296.691406 280.890625 288.097656 280.890625 277.496094 L 280.890625 179.058594 L 210.34375 179.058594 Z M 240.488281 209.203125 " fill-opacity="1" fill-rule="nonzero"/><path fill="#fafefd" d="M 133.957031 108.003906 C 136.609375 109.484375 142.007812 111.453125 158.175781 111.453125 C 167.089844 111.453125 174.972656 110.84375 175.304688 110.816406 C 177.089844 110.675781 178.6875 109.652344 179.5625 108.089844 C 180.433594 106.523438 180.464844 104.625 179.644531 103.03125 C 177.203125 98.292969 164.554688 74.386719 155.503906 69.34375 C 152.214844 67.507812 148.492188 66.539062 144.746094 66.539062 C 136.71875 66.539062 129.304688 70.890625 125.398438 77.898438 C 119.457031 88.558594 123.296875 102.066406 133.957031 108.003906 Z M 134.746094 83.109375 C 136.765625 79.488281 140.59375 77.242188 144.746094 77.242188 C 146.675781 77.242188 148.59375 77.742188 150.296875 78.691406 C 153.617188 80.542969 160.347656 90.414062 166.148438 100.597656 C 163.746094 100.6875 161.003906 100.75 158.179688 100.75 C 144.019531 100.75 140.046875 99.148438 139.167969 98.660156 C 133.660156 95.589844 131.679688 88.613281 134.746094 83.109375 Z M 134.746094 83.109375 " fill-opacity="1" fill-rule="nonzero"/><path fill="#fafefd" d="M 200.570312 110.816406 C 200.902344 110.84375 208.789062 111.453125 217.699219 111.453125 C 233.871094 111.453125 239.269531 109.484375 241.921875 108.003906 C 252.582031 102.066406 256.417969 88.558594 250.476562 77.898438 C 246.574219 70.890625 239.160156 66.539062 231.132812 66.539062 C 227.382812 66.539062 223.664062 67.511719 220.371094 69.34375 C 211.324219 74.386719 198.679688 98.292969 196.234375 103.03125 C 195.414062 104.625 195.445312 106.523438 196.316406 108.089844 C 197.1875 109.652344 198.785156 110.675781 200.570312 110.816406 Z M 225.582031 78.691406 C 227.28125 77.742188 229.203125 77.238281 231.132812 77.238281 C 235.28125 77.238281 239.113281 79.488281 241.132812 83.109375 C 244.199219 88.613281 242.214844 95.589844 236.710938 98.65625 C 235.832031 99.148438 231.859375 100.75 217.699219 100.75 C 214.875 100.75 212.132812 100.683594 209.730469 100.59375 C 215.53125 90.414062 222.261719 80.539062 225.582031 78.691406 Z M 225.582031 78.691406 " fill-opacity="1" fill-rule="nonzero"/></svg>