<svg xmlns="http://www.w3.org/2000/svg" xmlns:xlink="http://www.w3.org/1999/xlink" width="500" zoomAndPan="magnify" viewBox="0 0 375 374.999991" height="500" preserveAspectRatio="xMidYMid meet" version="1.0"><defs><clipPath id="f1ee6fb93f"><path d="M 5.285156 7.109375 L 368 7.109375 L 368 367.859375 L 5.285156 367.859375 Z M 5.285156 7.109375 " clip-rule="nonzero"/></clipPath></defs><g clip-path="url(#f1ee6fb93f)"><path fill="#fafefd" d="M 42.367188 7.148438 L 245.757812 7.148438 C 266.164062 7.148438 282.875 23.84375 282.875 44.265625 L 282.875 132.230469 L 207.136719 223.988281 L 172.804688 189.660156 C 158.664062 175.519531 135.652344 175.519531 121.511719 189.660156 L 112.820312 198.351562 C 98.679688 212.492188 98.679688 235.503906 112.820312 249.660156 L 184.941406 321.78125 C 192.285156 329.128906 201.953125 332.855469 212.316406 332.355469 C 222.710938 331.859375 231.9375 327.246094 238.554688 319.210938 L 282.894531 265.503906 L 282.894531 330.796875 C 282.894531 351.199219 266.199219 367.910156 245.777344 367.910156 L 42.382812 367.910156 C 21.980469 367.910156 5.269531 351.214844 5.269531 330.796875 L 5.269531 44.265625 C 5.269531 23.863281 21.964844 7.148438 42.382812 7.148438 Z M 208.375 250.335938 L 325.207031 108.808594 C 331.699219 100.933594 343.429688 99.8125 351.289062 106.308594 L 360.78125 114.132812 C 368.65625 120.625 369.773438 132.351562 363.28125 140.210938 L 224.859375 307.890625 C 221.417969 312.058594 216.859375 314.347656 211.445312 314.597656 C 206.035156 314.863281 201.28125 313.019531 197.449219 309.1875 L 125.328125 237.066406 C 118.105469 229.84375 118.105469 218.082031 125.328125 210.84375 L 134.019531 202.148438 C 141.242188 194.929688 153.003906 194.929688 160.226562 202.148438 L 208.359375 250.28125 Z M 65.554688 87.269531 C 60.65625 87.269531 56.683594 83.296875 56.683594 78.398438 C 56.683594 73.503906 60.65625 69.527344 65.554688 69.527344 L 222.550781 69.527344 C 227.449219 69.527344 231.421875 73.503906 231.421875 78.398438 C 231.421875 83.296875 227.449219 87.269531 222.550781 87.269531 Z M 65.554688 145.90625 C 60.65625 145.90625 56.683594 141.933594 56.683594 137.035156 C 56.683594 132.140625 60.65625 128.164062 65.554688 128.164062 L 222.550781 128.164062 C 227.449219 128.164062 231.421875 132.140625 231.421875 137.035156 C 231.421875 141.933594 227.449219 145.90625 222.550781 145.90625 Z M 65.554688 145.90625 " fill-opacity="1" fill-rule="evenodd"/></g></svg>