<svg xmlns="http://www.w3.org/2000/svg" xmlns:xlink="http://www.w3.org/1999/xlink" width="500" zoomAndPan="magnify" viewBox="0 0 375 374.999991" height="500" preserveAspectRatio="xMidYMid meet" version="1.0"><defs><clipPath id="86dc00eefe"><path d="M 8.488281 3.898438 L 366.238281 3.898438 L 366.238281 366 L 8.488281 366 Z M 8.488281 3.898438 " clip-rule="nonzero"/></clipPath></defs><g clip-path="url(#86dc00eefe)"><path fill="#278d46" d="M 366.226562 183.074219 C 366.226562 282.003906 286.15625 362.199219 187.386719 362.199219 C 180.183594 362.210938 173.003906 361.785156 165.851562 360.921875 C 158.703125 360.0625 151.628906 358.769531 144.632812 357.050781 C 137.636719 355.328125 130.773438 353.191406 124.035156 350.632812 C 117.300781 348.078125 110.746094 345.125 104.367188 341.769531 C 104.296875 341.800781 104.226562 341.832031 104.152344 341.863281 L 50.246094 364.296875 C 33.375 371.320312 16.363281 354.601562 23.050781 337.578125 L 42.484375 288.085938 C 36.988281 280.5 32.121094 272.53125 27.882812 264.179688 C 23.640625 255.828125 20.078125 247.191406 17.199219 238.277344 C 14.316406 229.363281 12.152344 220.277344 10.699219 211.019531 C 9.25 201.761719 8.53125 192.445312 8.546875 183.074219 C 8.546875 84.148438 88.617188 3.953125 187.386719 3.953125 C 286.15625 3.953125 366.226562 84.148438 366.226562 183.074219 Z M 366.226562 183.074219 " fill-opacity="1" fill-rule="nonzero"/></g><path fill="#ffffff" d="M 343.019531 183.074219 C 343.019531 185.628906 342.957031 188.175781 342.832031 190.726562 C 342.707031 193.273438 342.519531 195.816406 342.269531 198.355469 C 342.019531 200.894531 341.710938 203.425781 341.335938 205.949219 C 340.960938 208.472656 340.527344 210.984375 340.03125 213.488281 C 339.53125 215.988281 338.976562 218.476562 338.355469 220.953125 C 337.738281 223.425781 337.058594 225.886719 336.320312 228.328125 C 335.578125 230.765625 334.78125 233.1875 333.921875 235.589844 C 333.0625 237.992188 332.148438 240.371094 331.171875 242.730469 C 330.199219 245.085938 329.167969 247.417969 328.078125 249.722656 C 326.988281 252.03125 325.84375 254.308594 324.644531 256.558594 C 323.441406 258.808594 322.1875 261.027344 320.878906 263.214844 C 319.566406 265.402344 318.207031 267.558594 316.789062 269.679688 C 315.375 271.800781 313.910156 273.886719 312.390625 275.933594 C 310.875 277.984375 309.308594 279.996094 307.691406 281.964844 C 306.078125 283.9375 304.414062 285.871094 302.703125 287.761719 C 300.992188 289.648438 299.238281 291.496094 297.4375 293.300781 C 295.632812 295.105469 293.789062 296.863281 291.902344 298.578125 C 290.015625 300.289062 288.085938 301.957031 286.117188 303.574219 C 284.148438 305.191406 282.144531 306.761719 280.097656 308.28125 C 278.050781 309.800781 275.96875 311.269531 273.851562 312.6875 C 271.734375 314.105469 269.582031 315.46875 267.398438 316.78125 C 265.210938 318.09375 262.996094 319.347656 260.75 320.550781 C 258.503906 321.753906 256.230469 322.902344 253.925781 323.992188 C 251.625 325.082031 249.296875 326.117188 246.945312 327.09375 C 244.589844 328.066406 242.214844 328.984375 239.816406 329.84375 C 237.417969 330.703125 235 331.503906 232.5625 332.246094 C 230.125 332.984375 227.671875 333.667969 225.203125 334.285156 C 222.730469 334.90625 220.246094 335.464844 217.746094 335.960938 C 215.25 336.460938 212.742188 336.894531 210.222656 337.269531 C 207.703125 337.644531 205.175781 337.957031 202.640625 338.207031 C 200.105469 338.457031 197.566406 338.644531 195.023438 338.769531 C 192.476562 338.894531 189.933594 338.957031 187.386719 338.957031 C 184.839844 338.957031 182.292969 338.894531 179.75 338.769531 C 177.203125 338.644531 174.664062 338.457031 172.128906 338.207031 C 169.59375 337.957031 167.066406 337.644531 164.546875 337.269531 C 162.027344 336.894531 159.519531 336.460938 157.023438 335.960938 C 154.523438 335.464844 152.039062 334.90625 149.570312 334.285156 C 147.097656 333.667969 144.644531 332.984375 142.207031 332.246094 C 139.769531 331.503906 137.351562 330.703125 134.953125 329.84375 C 132.554688 328.984375 130.179688 328.066406 127.824219 327.09375 C 125.472656 326.117188 123.144531 325.082031 120.84375 323.992188 C 118.539062 322.902344 116.265625 321.753906 114.019531 320.550781 C 111.773438 319.347656 109.558594 318.09375 107.371094 316.78125 C 105.1875 315.46875 103.035156 314.105469 100.917969 312.6875 C 98.800781 311.269531 96.71875 309.800781 94.671875 308.28125 C 92.628906 306.761719 90.621094 305.191406 88.652344 303.574219 C 86.683594 301.957031 84.753906 300.289062 82.867188 298.578125 C 80.980469 296.863281 79.136719 295.105469 77.335938 293.300781 C 75.535156 291.496094 73.777344 289.648438 72.066406 287.761719 C 70.355469 285.871094 68.691406 283.9375 67.078125 281.964844 C 65.460938 279.996094 63.894531 277.984375 62.378906 275.933594 C 60.859375 273.886719 59.394531 271.800781 57.980469 269.679688 C 56.5625 267.558594 55.203125 265.402344 53.890625 263.214844 C 52.582031 261.027344 51.328125 258.808594 50.128906 256.558594 C 48.925781 254.308594 47.78125 252.03125 46.691406 249.722656 C 45.601562 247.417969 44.570312 245.085938 43.597656 242.730469 C 42.621094 240.371094 41.707031 237.992188 40.847656 235.589844 C 39.988281 233.1875 39.191406 230.765625 38.453125 228.328125 C 37.710938 225.886719 37.03125 223.425781 36.414062 220.953125 C 35.796875 218.476562 35.238281 215.988281 34.742188 213.488281 C 34.242188 210.984375 33.808594 208.472656 33.433594 205.949219 C 33.0625 203.425781 32.75 200.894531 32.5 198.355469 C 32.25 195.816406 32.0625 193.273438 31.9375 190.726562 C 31.8125 188.175781 31.75 185.628906 31.75 183.074219 C 31.75 180.523438 31.8125 177.976562 31.9375 175.425781 C 32.0625 172.878906 32.25 170.335938 32.5 167.796875 C 32.75 165.257812 33.0625 162.726562 33.433594 160.203125 C 33.808594 157.679688 34.242188 155.167969 34.742188 152.664062 C 35.238281 150.164062 35.796875 147.675781 36.414062 145.199219 C 37.03125 142.726562 37.710938 140.265625 38.453125 137.824219 C 39.191406 135.386719 39.988281 132.964844 40.847656 130.5625 C 41.707031 128.160156 42.621094 125.78125 43.597656 123.421875 C 44.570312 121.066406 45.601562 118.734375 46.691406 116.429688 C 47.78125 114.121094 48.925781 111.84375 50.128906 109.59375 C 51.328125 107.34375 52.582031 105.125 53.890625 102.9375 C 55.203125 100.75 56.5625 98.59375 57.980469 96.472656 C 59.394531 94.351562 60.859375 92.265625 62.378906 90.21875 C 63.894531 88.167969 65.460938 86.15625 67.078125 84.1875 C 68.691406 82.214844 70.355469 80.28125 72.066406 78.390625 C 73.777344 76.503906 75.535156 74.65625 77.335938 72.851562 C 79.136719 71.046875 80.980469 69.289062 82.867188 67.574219 C 84.753906 65.863281 86.683594 64.195312 88.652344 62.578125 C 90.621094 60.960938 92.628906 59.390625 94.671875 57.871094 C 96.71875 56.351562 98.800781 54.882812 100.917969 53.464844 C 103.035156 52.046875 105.1875 50.683594 107.371094 49.371094 C 109.558594 48.058594 111.773438 46.804688 114.019531 45.601562 C 116.265625 44.398438 118.539062 43.25 120.84375 42.160156 C 123.144531 41.070312 125.472656 40.035156 127.824219 39.058594 C 130.179688 38.082031 132.554688 37.167969 134.953125 36.308594 C 137.351562 35.445312 139.769531 34.648438 142.207031 33.90625 C 144.644531 33.167969 147.097656 32.484375 149.570312 31.867188 C 152.039062 31.246094 154.523438 30.6875 157.023438 30.191406 C 159.519531 29.691406 162.027344 29.257812 164.546875 28.882812 C 167.066406 28.507812 169.59375 28.195312 172.128906 27.945312 C 174.664062 27.695312 177.203125 27.507812 179.75 27.382812 C 182.292969 27.257812 184.839844 27.195312 187.386719 27.195312 C 189.933594 27.195312 192.476562 27.257812 195.023438 27.382812 C 197.566406 27.507812 200.105469 27.695312 202.640625 27.945312 C 205.175781 28.195312 207.703125 28.507812 210.222656 28.882812 C 212.742188 29.257812 215.25 29.691406 217.746094 30.191406 C 220.246094 30.6875 222.730469 31.246094 225.203125 31.867188 C 227.671875 32.484375 230.125 33.167969 232.5625 33.90625 C 235 34.648438 237.417969 35.445312 239.816406 36.308594 C 242.214844 37.167969 244.589844 38.082031 246.945312 39.058594 C 249.296875 40.035156 251.625 41.070312 253.925781 42.160156 C 256.230469 43.25 258.503906 44.398438 260.75 45.601562 C 262.996094 46.804688 265.210938 48.058594 267.398438 49.371094 C 269.582031 50.683594 271.734375 52.046875 273.851562 53.464844 C 275.96875 54.882812 278.050781 56.351562 280.097656 57.871094 C 282.144531 59.390625 284.148438 60.960938 286.117188 62.578125 C 288.085938 64.195312 290.015625 65.863281 291.902344 67.574219 C 293.789062 69.289062 295.632812 71.046875 297.4375 72.851562 C 299.238281 74.65625 300.992188 76.503906 302.703125 78.390625 C 304.414062 80.28125 306.078125 82.214844 307.691406 84.1875 C 309.308594 86.15625 310.875 88.167969 312.390625 90.21875 C 313.910156 92.265625 315.375 94.351562 316.789062 96.472656 C 318.207031 98.59375 319.566406 100.75 320.878906 102.9375 C 322.1875 105.125 323.441406 107.34375 324.644531 109.59375 C 325.84375 111.84375 326.988281 114.121094 328.078125 116.429688 C 329.167969 118.734375 330.199219 121.066406 331.171875 123.421875 C 332.148438 125.78125 333.0625 128.160156 333.921875 130.5625 C 334.78125 132.964844 335.578125 135.386719 336.320312 137.824219 C 337.058594 140.265625 337.738281 142.726562 338.355469 145.199219 C 338.976562 147.675781 339.53125 150.164062 340.03125 152.664062 C 340.527344 155.167969 340.960938 157.679688 341.335938 160.203125 C 341.710938 162.726562 342.019531 165.257812 342.269531 167.796875 C 342.519531 170.335938 342.707031 172.878906 342.832031 175.425781 C 342.957031 177.976562 343.019531 180.523438 343.019531 183.074219 Z M 343.019531 183.074219 " fill-opacity="1" fill-rule="nonzero"/><path fill="#278d46" d="M 321.222656 183.074219 C 321.222656 185.269531 321.167969 187.460938 321.0625 189.652344 C 320.953125 191.84375 320.792969 194.03125 320.578125 196.214844 C 320.363281 198.398438 320.09375 200.574219 319.773438 202.746094 C 319.453125 204.914062 319.078125 207.074219 318.648438 209.226562 C 318.222656 211.378906 317.742188 213.519531 317.210938 215.648438 C 316.679688 217.773438 316.09375 219.890625 315.457031 221.988281 C 314.824219 224.085938 314.136719 226.171875 313.398438 228.234375 C 312.660156 230.300781 311.871094 232.347656 311.035156 234.375 C 310.195312 236.402344 309.308594 238.40625 308.371094 240.390625 C 307.4375 242.371094 306.449219 244.332031 305.417969 246.265625 C 304.386719 248.199219 303.308594 250.109375 302.179688 251.992188 C 301.054688 253.871094 299.882812 255.726562 298.667969 257.550781 C 297.449219 259.375 296.1875 261.167969 294.882812 262.929688 C 293.578125 264.691406 292.230469 266.421875 290.84375 268.117188 C 289.453125 269.8125 288.023438 271.472656 286.550781 273.097656 C 285.082031 274.722656 283.570312 276.3125 282.023438 277.863281 C 280.472656 279.414062 278.886719 280.925781 277.265625 282.398438 C 275.640625 283.875 273.984375 285.304688 272.289062 286.699219 C 270.597656 288.089844 268.871094 289.4375 267.113281 290.746094 C 265.351562 292.050781 263.5625 293.316406 261.742188 294.535156 C 259.917969 295.753906 258.070312 296.925781 256.191406 298.054688 C 254.3125 299.179688 252.40625 300.261719 250.476562 301.296875 C 248.542969 302.332031 246.585938 303.316406 244.609375 304.253906 C 242.628906 305.191406 240.625 306.082031 238.601562 306.921875 C 236.578125 307.761719 234.535156 308.550781 232.472656 309.289062 C 230.410156 310.027344 228.332031 310.714844 226.234375 311.351562 C 224.140625 311.988281 222.03125 312.574219 219.90625 313.109375 C 217.78125 313.640625 215.644531 314.121094 213.496094 314.550781 C 211.347656 314.976562 209.191406 315.351562 207.023438 315.675781 C 204.855469 315.996094 202.683594 316.265625 200.503906 316.480469 C 198.324219 316.695312 196.140625 316.855469 193.953125 316.964844 C 191.765625 317.070312 189.574219 317.125 187.386719 317.125 C 185.195312 317.125 183.003906 317.070312 180.816406 316.964844 C 178.628906 316.855469 176.445312 316.695312 174.265625 316.480469 C 172.085938 316.265625 169.914062 315.996094 167.746094 315.675781 C 165.582031 315.351562 163.421875 314.976562 161.273438 314.550781 C 159.125 314.121094 156.988281 313.640625 154.867188 313.109375 C 152.742188 312.574219 150.628906 311.988281 148.535156 311.351562 C 146.4375 310.714844 144.359375 310.027344 142.296875 309.289062 C 140.234375 308.550781 138.191406 307.761719 136.167969 306.921875 C 134.144531 306.082031 132.140625 305.191406 130.164062 304.253906 C 128.183594 303.316406 126.226562 302.332031 124.292969 301.296875 C 122.363281 300.261719 120.457031 299.179688 118.578125 298.054688 C 116.699219 296.925781 114.851562 295.753906 113.027344 294.535156 C 111.207031 293.316406 109.417969 292.050781 107.660156 290.746094 C 105.898438 289.4375 104.171875 288.089844 102.480469 286.699219 C 100.785156 285.304688 99.128906 283.875 97.503906 282.398438 C 95.882812 280.925781 94.296875 279.414062 92.746094 277.863281 C 91.199219 276.3125 89.6875 274.722656 88.21875 273.097656 C 86.746094 271.472656 85.316406 269.8125 83.925781 268.117188 C 82.539062 266.417969 81.191406 264.691406 79.886719 262.929688 C 78.582031 261.167969 77.320312 259.375 76.105469 257.550781 C 74.886719 255.726562 73.714844 253.871094 72.589844 251.992188 C 71.464844 250.109375 70.382812 248.199219 69.351562 246.265625 C 68.320312 244.332031 67.335938 242.371094 66.398438 240.390625 C 65.460938 238.40625 64.574219 236.402344 63.734375 234.375 C 62.898438 232.347656 62.109375 230.300781 61.371094 228.234375 C 60.632812 226.171875 59.945312 224.085938 59.3125 221.988281 C 58.675781 219.890625 58.089844 217.773438 57.558594 215.648438 C 57.027344 213.519531 56.546875 211.378906 56.121094 209.226562 C 55.691406 207.074219 55.316406 204.914062 54.996094 202.746094 C 54.675781 200.574219 54.40625 198.398438 54.191406 196.214844 C 53.976562 194.03125 53.816406 191.84375 53.710938 189.652344 C 53.601562 187.460938 53.546875 185.269531 53.546875 183.074219 C 53.546875 180.882812 53.601562 178.691406 53.710938 176.5 C 53.816406 174.308594 53.976562 172.121094 54.191406 169.9375 C 54.40625 167.753906 54.675781 165.578125 54.996094 163.40625 C 55.316406 161.238281 55.691406 159.074219 56.121094 156.925781 C 56.546875 154.773438 57.027344 152.632812 57.558594 150.503906 C 58.089844 148.375 58.675781 146.261719 59.3125 144.164062 C 59.945312 142.066406 60.632812 139.980469 61.371094 137.917969 C 62.109375 135.851562 62.898438 133.804688 63.734375 131.777344 C 64.574219 129.75 65.460938 127.746094 66.398438 125.761719 C 67.335938 123.78125 68.320312 121.820312 69.351562 119.886719 C 70.382812 117.949219 71.464844 116.042969 72.589844 114.160156 C 73.714844 112.28125 74.886719 110.425781 76.105469 108.601562 C 77.320312 106.777344 78.582031 104.984375 79.886719 103.222656 C 81.191406 101.460938 82.539062 99.730469 83.925781 98.035156 C 85.316406 96.339844 86.746094 94.679688 88.21875 93.054688 C 89.6875 91.429688 91.199219 89.839844 92.746094 88.289062 C 94.296875 86.738281 95.882812 85.226562 97.503906 83.753906 C 99.128906 82.277344 100.785156 80.847656 102.480469 79.453125 C 104.171875 78.0625 105.898438 76.714844 107.660156 75.40625 C 109.417969 74.101562 111.207031 72.835938 113.027344 71.617188 C 114.851562 70.398438 116.699219 69.226562 118.578125 68.097656 C 120.457031 66.972656 122.363281 65.890625 124.292969 64.855469 C 126.226562 63.820312 128.183594 62.835938 130.164062 61.898438 C 132.140625 60.960938 134.144531 60.070312 136.167969 59.230469 C 138.191406 58.390625 140.234375 57.601562 142.296875 56.863281 C 144.359375 56.125 146.4375 55.4375 148.535156 54.800781 C 150.628906 54.164062 152.742188 53.578125 154.867188 53.042969 C 156.988281 52.511719 159.125 52.03125 161.273438 51.601562 C 163.421875 51.175781 165.582031 50.800781 167.746094 50.476562 C 169.914062 50.15625 172.085938 49.886719 174.265625 49.671875 C 176.445312 49.457031 178.628906 49.296875 180.816406 49.1875 C 183.003906 49.082031 185.195312 49.027344 187.386719 49.027344 C 189.574219 49.027344 191.765625 49.082031 193.953125 49.1875 C 196.140625 49.296875 198.324219 49.457031 200.503906 49.671875 C 202.683594 49.886719 204.855469 50.15625 207.023438 50.476562 C 209.191406 50.800781 211.347656 51.175781 213.496094 51.601562 C 215.644531 52.03125 217.78125 52.511719 219.90625 53.042969 C 222.03125 53.578125 224.140625 54.164062 226.234375 54.800781 C 228.332031 55.4375 230.410156 56.125 232.472656 56.863281 C 234.535156 57.601562 236.578125 58.390625 238.601562 59.230469 C 240.625 60.070312 242.628906 60.960938 244.609375 61.898438 C 246.585938 62.835938 248.542969 63.820312 250.476562 64.855469 C 252.40625 65.890625 254.3125 66.972656 256.191406 68.097656 C 258.070312 69.226562 259.917969 70.398438 261.742188 71.617188 C 263.5625 72.835938 265.351562 74.101562 267.113281 75.40625 C 268.871094 76.714844 270.597656 78.0625 272.289062 79.453125 C 273.984375 80.847656 275.640625 82.277344 277.265625 83.753906 C 278.886719 85.226562 280.472656 86.738281 282.023438 88.289062 C 283.570312 89.839844 285.082031 91.429688 286.550781 93.054688 C 288.023438 94.679688 289.453125 96.339844 290.84375 98.035156 C 292.230469 99.730469 293.578125 101.460938 294.882812 103.222656 C 296.1875 104.984375 297.449219 106.777344 298.667969 108.601562 C 299.882812 110.425781 301.054688 112.28125 302.179688 114.160156 C 303.308594 116.042969 304.386719 117.953125 305.417969 119.886719 C 306.449219 121.820312 307.4375 123.78125 308.371094 125.761719 C 309.308594 127.746094 310.195312 129.75 311.035156 131.777344 C 311.871094 133.804688 312.660156 135.851562 313.398438 137.917969 C 314.136719 139.980469 314.824219 142.066406 315.457031 144.164062 C 316.09375 146.261719 316.679688 148.375 317.210938 150.503906 C 317.742188 152.632812 318.222656 154.773438 318.648438 156.925781 C 319.078125 159.074219 319.453125 161.238281 319.773438 163.40625 C 320.09375 165.578125 320.363281 167.753906 320.578125 169.9375 C 320.792969 172.121094 320.953125 174.308594 321.0625 176.5 C 321.167969 178.691406 321.222656 180.882812 321.222656 183.074219 Z M 321.222656 183.074219 " fill-opacity="1" fill-rule="nonzero"/><path fill="#ffffff" d="M 170.199219 139.285156 L 164.992188 117.261719 C 164.84375 116.636719 164.660156 116.015625 164.449219 115.410156 C 164.234375 114.800781 163.992188 114.207031 163.714844 113.625 C 163.4375 113.042969 163.132812 112.476562 162.796875 111.925781 C 162.464844 111.375 162.101562 110.84375 161.707031 110.332031 C 161.316406 109.820312 160.902344 109.332031 160.457031 108.863281 C 160.015625 108.398438 159.550781 107.953125 159.058594 107.535156 C 158.570312 107.117188 158.0625 106.726562 157.53125 106.359375 C 157 105.996094 156.453125 105.660156 155.886719 105.351562 C 155.320312 105.046875 154.738281 104.769531 154.144531 104.523438 C 153.550781 104.277344 152.945312 104.066406 152.328125 103.882812 C 151.710938 103.703125 151.085938 103.550781 150.453125 103.4375 C 149.820312 103.320312 149.179688 103.238281 148.539062 103.191406 C 147.898438 103.140625 147.257812 103.128906 146.613281 103.148438 C 145.96875 103.167969 145.328125 103.21875 144.691406 103.304688 C 144.054688 103.394531 143.421875 103.511719 142.796875 103.667969 C 142.171875 103.820312 141.558594 104.003906 140.953125 104.222656 L 128.941406 108.554688 C 127.96875 108.90625 127.035156 109.335938 126.136719 109.84375 C 125.238281 110.355469 124.386719 110.933594 123.585938 111.585938 C 122.785156 112.242188 122.042969 112.957031 121.363281 113.734375 C 120.683594 114.511719 120.074219 115.34375 119.535156 116.222656 C 118.992188 117.105469 118.53125 118.027344 118.144531 118.984375 C 117.761719 119.945312 117.460938 120.929688 117.242188 121.941406 C 117.023438 122.953125 116.890625 123.972656 116.84375 125.007812 C 116.796875 126.039062 116.835938 127.070312 116.964844 128.097656 C 121.148438 162.160156 140.417969 244.570312 229.035156 262.675781 C 229.910156 262.855469 230.792969 262.96875 231.683594 263.019531 C 232.574219 263.070312 233.464844 263.054688 234.351562 262.972656 C 235.242188 262.894531 236.121094 262.75 236.988281 262.539062 C 237.855469 262.332031 238.703125 262.058594 239.535156 261.726562 C 240.363281 261.394531 241.160156 261 241.933594 260.550781 C 242.703125 260.101562 243.4375 259.597656 244.136719 259.039062 C 244.835938 258.480469 245.488281 257.875 246.097656 257.222656 C 246.707031 256.570312 247.265625 255.875 247.773438 255.140625 L 254.667969 245.164062 C 255.011719 244.671875 255.328125 244.160156 255.617188 243.636719 C 255.910156 243.109375 256.175781 242.570312 256.414062 242.019531 C 256.652344 241.46875 256.863281 240.90625 257.046875 240.335938 C 257.230469 239.761719 257.386719 239.183594 257.511719 238.59375 C 257.640625 238.007812 257.738281 237.414062 257.804688 236.816406 C 257.875 236.222656 257.914062 235.621094 257.925781 235.019531 C 257.933594 234.417969 257.914062 233.820312 257.867188 233.21875 C 257.816406 232.621094 257.738281 232.027344 257.632812 231.433594 C 257.523438 230.84375 257.386719 230.257812 257.222656 229.679688 C 257.058594 229.101562 256.867188 228.535156 256.644531 227.976562 C 256.425781 227.417969 256.175781 226.867188 255.902344 226.335938 C 255.628906 225.800781 255.328125 225.28125 255.003906 224.773438 C 254.679688 224.269531 254.328125 223.78125 253.957031 223.308594 C 253.582031 222.839844 253.1875 222.386719 252.769531 221.957031 C 252.355469 221.523438 251.917969 221.113281 251.460938 220.722656 C 251 220.335938 250.527344 219.96875 250.03125 219.628906 L 249.914062 219.546875 L 234.765625 209.214844 C 233.949219 208.660156 233.097656 208.171875 232.203125 207.753906 C 231.308594 207.339844 230.390625 206.996094 229.441406 206.726562 C 228.492188 206.457031 227.527344 206.265625 226.550781 206.152344 C 225.570312 206.039062 224.585938 206.007812 223.601562 206.054688 C 222.617188 206.097656 221.644531 206.222656 220.679688 206.425781 C 219.714844 206.628906 218.773438 206.910156 217.851562 207.265625 C 216.933594 207.621094 216.046875 208.046875 215.199219 208.546875 C 214.347656 209.042969 213.542969 209.609375 212.78125 210.238281 C 212.027344 210.863281 211.226562 211.425781 210.382812 211.921875 C 209.539062 212.417969 208.660156 212.84375 207.746094 213.199219 C 206.832031 213.558594 205.898438 213.835938 204.9375 214.042969 C 203.980469 214.246094 203.011719 214.375 202.035156 214.425781 C 201.054688 214.472656 200.078125 214.445312 199.105469 214.335938 C 198.132812 214.230469 197.171875 214.042969 196.226562 213.78125 C 195.285156 213.519531 194.367188 213.183594 193.476562 212.773438 C 192.585938 212.363281 191.734375 211.886719 190.921875 211.339844 C 181.703125 205.121094 169.230469 194.808594 161.125 180.511719 C 160.671875 179.714844 160.28125 178.886719 159.949219 178.03125 C 159.621094 177.175781 159.355469 176.300781 159.152344 175.402344 C 158.953125 174.507812 158.820312 173.601562 158.757812 172.6875 C 158.691406 171.773438 158.695312 170.855469 158.769531 169.941406 C 158.839844 169.027344 158.980469 168.125 159.1875 167.230469 C 159.394531 166.335938 159.664062 165.460938 160.003906 164.609375 C 160.339844 163.753906 160.738281 162.933594 161.199219 162.140625 C 161.660156 161.34375 162.175781 160.589844 162.75 159.875 L 166.648438 155.019531 C 167.523438 153.933594 168.261719 152.757812 168.871094 151.5 C 169.476562 150.242188 169.933594 148.929688 170.242188 147.566406 C 170.550781 146.203125 170.699219 144.820312 170.695312 143.425781 C 170.6875 142.027344 170.523438 140.648438 170.199219 139.285156 Z M 170.199219 139.285156 " fill-opacity="1" fill-rule="nonzero"/></svg>