<svg xmlns="http://www.w3.org/2000/svg" xmlns:xlink="http://www.w3.org/1999/xlink" width="500" zoomAndPan="magnify" viewBox="0 0 375 374.999991" height="500" preserveAspectRatio="xMidYMid meet" version="1.0"><defs><g/><clipPath id="46d54b966d"><path d="M 6.519531 6.066406 L 305 6.066406 L 305 368.957031 L 6.519531 368.957031 Z M 6.519531 6.066406 " clip-rule="nonzero"/></clipPath><clipPath id="ca0f8f1cff"><path d="M 130 42 L 367.910156 42 L 367.910156 333 L 130 333 Z M 130 42 " clip-rule="nonzero"/></clipPath><clipPath id="2b558c5c3c"><path d="M 0 142.597656 L 375 142.597656 L 375 250.367188 L 0 250.367188 Z M 0 142.597656 " clip-rule="nonzero"/></clipPath></defs><g clip-path="url(#46d54b966d)"><path fill="#151843" d="M 225.191406 347.519531 C 136.808594 347.519531 65.164062 275.871094 65.164062 187.488281 C 65.164062 99.105469 136.808594 27.460938 225.191406 27.460938 C 253.871094 27.460938 280.765625 35.039062 304.042969 48.253906 C 272.574219 21.964844 232.066406 6.121094 187.851562 6.121094 C 87.6875 6.121094 6.484375 87.324219 6.484375 187.488281 C 6.484375 287.652344 87.6875 368.855469 187.851562 368.855469 C 232.066406 368.855469 272.570312 353.015625 304.042969 326.722656 C 280.765625 339.9375 253.871094 347.519531 225.191406 347.519531 " fill-opacity="1" fill-rule="nonzero"/></g><g clip-path="url(#ca0f8f1cff)"><path fill="#cc2f34" d="M 193.746094 315.289062 C 264.328125 315.289062 321.546875 258.070312 321.546875 187.488281 C 321.546875 116.910156 264.328125 59.691406 193.746094 59.691406 C 170.847656 59.691406 149.367188 65.746094 130.78125 76.296875 C 155.910156 55.300781 188.253906 42.652344 223.566406 42.652344 C 303.558594 42.652344 368.402344 107.496094 368.402344 187.488281 C 368.402344 267.480469 303.558594 332.324219 223.566406 332.324219 C 188.253906 332.324219 155.910156 319.675781 130.78125 298.679688 C 149.367188 309.230469 170.847656 315.289062 193.746094 315.289062 " fill-opacity="1" fill-rule="nonzero"/></g><g clip-path="url(#2b558c5c3c)"><path fill="#ffffff" d="M -8.445312 142.597656 L 383.488281 142.597656 L 383.488281 250.367188 L -8.445312 250.367188 Z M -8.445312 142.597656 " fill-opacity="1" fill-rule="nonzero"/></g><g fill="#151843" fill-opacity="1"><g transform="translate(9.773087, 220.976812)"><g><path d="M 45.5 -36.28125 C 45.5 -34.050781 45.0625 -31.945312 44.1875 -29.96875 C 42.539062 -26.144531 39.492188 -23.53125 35.046875 -22.125 C 33.742188 -21.695312 32.535156 -21.484375 31.421875 -21.484375 C 27.984375 -21.484375 24.910156 -22.375 22.203125 -24.15625 L 22.203125 -24.890625 C 25.828125 -24.796875 28.753906 -25.976562 30.984375 -28.4375 C 32.921875 -30.570312 33.890625 -33.359375 33.890625 -36.796875 C 33.890625 -40.273438 33.050781 -42.96875 31.375 -44.875 C 29.707031 -46.789062 27.445312 -47.75 24.59375 -47.75 L 19.734375 -47.75 L 19.734375 -5.296875 C 19.734375 -4.035156 20.191406 -2.957031 21.109375 -2.0625 C 22.035156 -1.164062 23.125 -0.71875 24.375 -0.71875 L 25.328125 -0.71875 L 25.328125 0 L 3.265625 0 L 3.265625 -0.71875 L 4.203125 -0.71875 C 5.460938 -0.71875 6.539062 -1.164062 7.4375 -2.0625 C 8.332031 -2.957031 8.804688 -4.035156 8.859375 -5.296875 L 8.859375 -45.859375 C 8.859375 -47.066406 8.394531 -48.066406 7.46875 -48.859375 C 6.550781 -49.660156 5.460938 -50.0625 4.203125 -50.0625 L 3.265625 -50.0625 L 3.265625 -50.796875 L 27.5 -50.796875 C 33.40625 -50.796875 37.859375 -49.535156 40.859375 -47.015625 C 43.953125 -44.359375 45.5 -40.78125 45.5 -36.28125 Z M 45.5 -36.28125 "/></g></g></g><g fill="#151843" fill-opacity="1"><g transform="translate(57.290158, 220.976812)"><g><path d="M 3.984375 -0.71875 C 5.242188 -0.71875 6.320312 -1.164062 7.21875 -2.0625 C 8.113281 -2.957031 8.585938 -4.035156 8.640625 -5.296875 L 8.640625 -45.71875 C 8.535156 -46.96875 8.171875 -47.882812 7.546875 -48.46875 C 6.390625 -49.53125 5.203125 -50.0625 3.984375 -50.0625 L 3.046875 -50.0625 L 3.046875 -50.796875 L 30.84375 -50.796875 C 33.207031 -50.796875 35.160156 -50.972656 36.703125 -51.328125 C 38.253906 -51.691406 39.203125 -51.945312 39.546875 -52.09375 L 39.546875 -39.40625 L 38.828125 -39.46875 L 38.828125 -40.265625 C 38.828125 -43.265625 37.710938 -45.394531 35.484375 -46.65625 C 34.421875 -47.28125 33.160156 -47.617188 31.703125 -47.671875 L 19.515625 -47.671875 L 19.515625 -26.5625 L 29.09375 -26.5625 C 30.882812 -26.601562 32.359375 -27.21875 33.515625 -28.40625 C 34.679688 -29.59375 35.265625 -31.054688 35.265625 -32.796875 L 35.265625 -33.453125 L 35.984375 -33.453125 L 35.984375 -16.6875 L 35.265625 -16.6875 L 35.265625 -17.265625 C 35.265625 -19.054688 34.695312 -20.53125 33.5625 -21.6875 C 32.425781 -22.851562 30.988281 -23.460938 29.25 -23.515625 L 19.515625 -23.515625 L 19.515625 -3.125 L 29.03125 -3.125 C 32.5625 -3.125 35.519531 -4.140625 37.90625 -6.171875 C 40.300781 -8.203125 42.082031 -11.078125 43.25 -14.796875 L 43.96875 -14.796875 L 40.640625 0 L 3.046875 0 L 3.046875 -0.71875 Z M 3.984375 -0.71875 "/></g></g></g><g fill="#151843" fill-opacity="1"><g transform="translate(103.06615, 220.976812)"><g><path d="M 42.453125 -64.515625 L 43.3125 -64.515625 C 43.414062 -63.972656 43.46875 -63.460938 43.46875 -62.984375 C 43.46875 -61.484375 42.984375 -59.984375 42.015625 -58.484375 C 40.703125 -56.453125 38.789062 -55.4375 36.28125 -55.4375 C 35.164062 -55.4375 34.003906 -55.703125 32.796875 -56.234375 C 31.585938 -56.765625 30.363281 -57.34375 29.125 -57.96875 C 27.894531 -58.601562 26.960938 -58.957031 26.328125 -59.03125 C 25.703125 -59.101562 25.085938 -59.140625 24.484375 -59.140625 C 23.878906 -59.140625 23.101562 -58.800781 22.15625 -58.125 C 21.21875 -57.445312 20.554688 -56.625 20.171875 -55.65625 L 19.296875 -55.65625 C 19.253906 -56.039062 19.234375 -56.40625 19.234375 -56.75 C 19.234375 -58.582031 19.8125 -60.453125 20.96875 -62.359375 C 22.132812 -64.273438 23.925781 -65.234375 26.34375 -65.234375 C 27.644531 -65.234375 29.46875 -64.628906 31.8125 -63.421875 C 34.164062 -62.210938 36.164062 -61.609375 37.8125 -61.609375 C 38.238281 -61.609375 38.816406 -61.753906 39.546875 -62.046875 C 41.046875 -62.578125 42.015625 -63.398438 42.453125 -64.515625 Z M 59.28125 -50.0625 C 58.070312 -50.0625 57.03125 -49.640625 56.15625 -48.796875 C 55.289062 -47.953125 54.832031 -46.925781 54.78125 -45.71875 L 54.78125 -8.265625 C 54.78125 -5.023438 55 -2.296875 55.4375 -0.078125 L 55.65625 1.015625 L 55 1.015625 L 18.359375 -33.890625 L 18.359375 -5.078125 C 18.359375 -3.390625 19.109375 -2.132812 20.609375 -1.3125 C 21.285156 -0.914062 22.007812 -0.71875 22.78125 -0.71875 L 24.15625 -0.71875 L 24.15625 0 L 2.171875 0 L 2.171875 -0.71875 L 3.484375 -0.71875 C 4.742188 -0.71875 5.804688 -1.140625 6.671875 -1.984375 C 7.546875 -2.835938 7.984375 -3.894531 7.984375 -5.15625 L 7.984375 -42.8125 C 7.984375 -46 7.765625 -48.660156 7.328125 -50.796875 L 7.1875 -51.875 L 7.84375 -51.875 L 44.484375 -16.984375 L 44.484375 -45.640625 C 44.429688 -46.898438 43.96875 -47.953125 43.09375 -48.796875 C 42.226562 -49.640625 41.191406 -50.0625 39.984375 -50.0625 L 38.671875 -50.0625 L 38.671875 -50.796875 L 60.65625 -50.796875 L 60.65625 -50.0625 Z M 59.28125 -50.0625 "/></g></g></g><g fill="#151843" fill-opacity="1"><g transform="translate(165.817717, 220.976812)"><g><path d="M 53.5625 -0.71875 L 54.203125 -0.71875 L 54.203125 0 L 31.0625 0 L 31.0625 -0.71875 L 31.71875 -0.71875 C 32.78125 -0.71875 33.5625 -1.046875 34.0625 -1.703125 C 34.570312 -2.359375 34.828125 -2.972656 34.828125 -3.546875 C 34.828125 -4.128906 34.707031 -4.710938 34.46875 -5.296875 L 30.921875 -14.21875 L 13.9375 -14.21875 L 10.171875 -5.296875 C 9.921875 -4.671875 9.796875 -4.078125 9.796875 -3.515625 C 9.796875 -2.960938 10.0625 -2.359375 10.59375 -1.703125 C 11.125 -1.046875 11.925781 -0.71875 13 -0.71875 L 13.578125 -0.71875 L 13.578125 0 L -1.953125 0 L -1.953125 -0.71875 L -1.296875 -0.71875 C -0.179688 -0.71875 0.925781 -1.054688 2.03125 -1.734375 C 3.144531 -2.410156 4.066406 -3.429688 4.796875 -4.796875 L 21.5625 -42.734375 C 23.832031 -47.523438 25.039062 -50.695312 25.1875 -52.25 L 25.84375 -52.25 L 47.390625 -4.9375 C 48.117188 -3.53125 49.035156 -2.472656 50.140625 -1.765625 C 51.253906 -1.066406 52.394531 -0.71875 53.5625 -0.71875 Z M 15.171875 -17.265625 L 29.6875 -17.265625 L 22.640625 -35.125 Z M 15.171875 -17.265625 "/></g></g></g><g fill="#151843" fill-opacity="1"><g transform="translate(217.760052, 220.976812)"><g><path d="M 45.5 -36.28125 C 45.5 -34.050781 45.0625 -31.945312 44.1875 -29.96875 C 42.539062 -26.144531 39.492188 -23.53125 35.046875 -22.125 C 33.742188 -21.695312 32.535156 -21.484375 31.421875 -21.484375 C 27.984375 -21.484375 24.910156 -22.375 22.203125 -24.15625 L 22.203125 -24.890625 C 25.828125 -24.796875 28.753906 -25.976562 30.984375 -28.4375 C 32.921875 -30.570312 33.890625 -33.359375 33.890625 -36.796875 C 33.890625 -40.273438 33.050781 -42.96875 31.375 -44.875 C 29.707031 -46.789062 27.445312 -47.75 24.59375 -47.75 L 19.734375 -47.75 L 19.734375 -5.296875 C 19.734375 -4.035156 20.191406 -2.957031 21.109375 -2.0625 C 22.035156 -1.164062 23.125 -0.71875 24.375 -0.71875 L 25.328125 -0.71875 L 25.328125 0 L 3.265625 0 L 3.265625 -0.71875 L 4.203125 -0.71875 C 5.460938 -0.71875 6.539062 -1.164062 7.4375 -2.0625 C 8.332031 -2.957031 8.804688 -4.035156 8.859375 -5.296875 L 8.859375 -45.859375 C 8.859375 -47.066406 8.394531 -48.066406 7.46875 -48.859375 C 6.550781 -49.660156 5.460938 -50.0625 4.203125 -50.0625 L 3.265625 -50.0625 L 3.265625 -50.796875 L 27.5 -50.796875 C 33.40625 -50.796875 37.859375 -49.535156 40.859375 -47.015625 C 43.953125 -44.359375 45.5 -40.78125 45.5 -36.28125 Z M 45.5 -36.28125 "/></g></g></g><g fill="#151843" fill-opacity="1"><g transform="translate(265.277123, 220.976812)"><g><path d="M 53.5625 -0.71875 L 54.203125 -0.71875 L 54.203125 0 L 31.0625 0 L 31.0625 -0.71875 L 31.71875 -0.71875 C 32.78125 -0.71875 33.5625 -1.046875 34.0625 -1.703125 C 34.570312 -2.359375 34.828125 -2.972656 34.828125 -3.546875 C 34.828125 -4.128906 34.707031 -4.710938 34.46875 -5.296875 L 30.921875 -14.21875 L 13.9375 -14.21875 L 10.171875 -5.296875 C 9.921875 -4.671875 9.796875 -4.078125 9.796875 -3.515625 C 9.796875 -2.960938 10.0625 -2.359375 10.59375 -1.703125 C 11.125 -1.046875 11.925781 -0.71875 13 -0.71875 L 13.578125 -0.71875 L 13.578125 0 L -1.953125 0 L -1.953125 -0.71875 L -1.296875 -0.71875 C -0.179688 -0.71875 0.925781 -1.054688 2.03125 -1.734375 C 3.144531 -2.410156 4.066406 -3.429688 4.796875 -4.796875 L 21.5625 -42.734375 C 23.832031 -47.523438 25.039062 -50.695312 25.1875 -52.25 L 25.84375 -52.25 L 47.390625 -4.9375 C 48.117188 -3.53125 49.035156 -2.472656 50.140625 -1.765625 C 51.253906 -1.066406 52.394531 -0.71875 53.5625 -0.71875 Z M 15.171875 -17.265625 L 29.6875 -17.265625 L 22.640625 -35.125 Z M 15.171875 -17.265625 "/></g></g></g><g fill="#151843" fill-opacity="1"><g transform="translate(317.219458, 220.976812)"><g><path d="M 4.28125 -52.171875 C 5.007812 -51.878906 6.28125 -51.585938 8.09375 -51.296875 C 9.90625 -51.003906 11.1875 -50.859375 11.9375 -50.859375 C 12.6875 -50.859375 13.0625 -50.859375 13.0625 -50.859375 L 36.203125 -50.859375 C 38.234375 -50.859375 39.953125 -50.976562 41.359375 -51.21875 C 42.765625 -51.46875 43.585938 -51.664062 43.828125 -51.8125 L 43.828125 -51.15625 L 16.984375 -3.046875 L 32.21875 -3.046875 C 35.3125 -3.046875 38.003906 -4.082031 40.296875 -6.15625 C 42.597656 -8.238281 44.234375 -11.046875 45.203125 -14.578125 L 45.9375 -14.578125 L 43.3125 0 L 3.265625 0 L 3.265625 -0.65625 L 29.890625 -47.8125 L 12.328125 -47.8125 C 9.285156 -47.769531 7.132812 -46.585938 5.875 -44.265625 C 5.289062 -43.148438 5 -41.867188 5 -40.421875 L 5 -39.546875 L 4.28125 -39.546875 Z M 4.28125 -52.171875 "/></g></g></g><g fill="#151843" fill-opacity="1"><g transform="translate(150.975851, 260.287523)"><g><path d="M 4.578125 -2.21875 L 10.25 -2.21875 L 10.25 0 L 1.8125 0 L 1.8125 -16.8125 L 4.578125 -16.8125 Z M 4.578125 -2.21875 "/></g></g></g><g fill="#151843" fill-opacity="1"><g transform="translate(166.599061, 260.287523)"><g><path d="M 12.671875 -16.8125 L 12.671875 -14.5625 L 8.203125 -14.5625 L 8.203125 0 L 5.4375 0 L 5.4375 -14.5625 L 0.9375 -14.5625 L 0.9375 -16.8125 Z M 12.671875 -16.8125 "/></g></g></g><g fill="#151843" fill-opacity="1"><g transform="translate(185.124054, 260.287523)"><g><path d="M 7.296875 -16.8125 C 9.085938 -16.8125 10.65625 -16.46875 12 -15.78125 C 13.351562 -15.09375 14.394531 -14.109375 15.125 -12.828125 C 15.863281 -11.546875 16.234375 -10.050781 16.234375 -8.34375 C 16.234375 -6.632812 15.863281 -5.148438 15.125 -3.890625 C 14.394531 -2.628906 13.351562 -1.664062 12 -1 C 10.65625 -0.332031 9.085938 0 7.296875 0 L 1.8125 0 L 1.8125 -16.8125 Z M 7.296875 -2.25 C 9.265625 -2.25 10.773438 -2.78125 11.828125 -3.84375 C 12.878906 -4.90625 13.40625 -6.40625 13.40625 -8.34375 C 13.40625 -10.289062 12.878906 -11.8125 11.828125 -12.90625 C 10.773438 -14.007812 9.265625 -14.5625 7.296875 -14.5625 L 4.578125 -14.5625 L 4.578125 -2.25 Z M 7.296875 -2.25 "/></g></g></g><g fill="#151843" fill-opacity="1"><g transform="translate(207.155376, 260.287523)"><g><path d="M 11.953125 -3.4375 L 4.90625 -3.4375 L 3.703125 0 L 0.828125 0 L 6.84375 -16.828125 L 10.03125 -16.828125 L 16.0625 0 L 13.15625 0 Z M 11.171875 -5.6875 L 8.4375 -13.5 L 5.6875 -5.6875 Z M 11.171875 -5.6875 "/></g></g></g></svg>